<svg width="128" height="44" viewBox="0 0 128 44" fill="none" xmlns="http://www.w3.org/2000/svg">
<g clip-path="url(#clip0)">
<path d="M117.807 0.000143H10.1989C9.80663 0.000143 9.41909 0.000143 9.02789 0.002343C8.70041 0.004543 8.37554 0.010934 8.04492 0.016313C7.32666 0.025005 6.61008 0.0899869 5.90143 0.210694C5.19377 0.334029 4.50827 0.56655 3.86813 0.900394C3.22877 1.23706 2.64457 1.67453 2.13672 2.19692C1.62621 2.71784 1.20066 3.31996 0.876427 3.98012C0.551304 4.63896 0.325862 5.34498 0.207889 6.07377C0.0887936 6.80165 0.0247074 7.53792 0.0162054 8.27597C0.00627891 8.61323 0.00523064 8.95161 0 9.28892V34.7146C0.00523064 35.0562 0.00627891 35.387 0.0162054 35.7287C0.02471 36.4667 0.0887962 37.2029 0.207889 37.9308C0.325536 38.66 0.550991 39.3664 0.876427 40.0255C1.20051 40.6835 1.62612 41.2832 2.13672 41.8012C2.64265 42.326 3.22722 42.7637 3.86813 43.0978C4.50827 43.4325 5.19369 43.6665 5.90143 43.7917C6.61021 43.9114 7.32671 43.9764 8.04492 43.9862C8.37554 43.9937 8.70041 43.9979 9.02789 43.9979C9.41908 44.0001 9.80665 44.0001 10.1989 44.0001H117.807C118.191 44.0001 118.582 44.0001 118.966 43.9979C119.292 43.9979 119.627 43.9937 119.953 43.9862C120.669 43.977 121.385 43.9119 122.092 43.7917C122.802 43.6656 123.49 43.4317 124.133 43.0978C124.773 42.7635 125.357 42.3258 125.863 41.8012C126.372 41.2812 126.799 40.6819 127.127 40.0255C127.45 39.3659 127.673 38.6596 127.789 37.9308C127.908 37.2028 127.975 36.4668 127.987 35.7287C127.992 35.387 127.992 35.0562 127.992 34.7146C128 34.315 128 33.9175 128 33.5114V10.4899C128 10.0871 128 9.68745 127.992 9.28892C127.992 8.95161 127.992 8.61323 127.987 8.27593C127.975 7.53781 127.908 6.8017 127.789 6.07373C127.673 5.34535 127.449 4.6394 127.127 3.98007C126.466 2.65686 125.419 1.57977 124.133 0.900295C123.49 0.567267 122.802 0.334807 122.092 0.210595C121.385 0.0893561 120.669 0.0243515 119.953 0.016159C119.627 0.010791 119.292 0.004345 118.966 0.0022C118.582 0 118.191 0 117.807 0V0.000143Z" fill="#A6A6A6"/>
<path d="M9.03287 43.0379C8.70697 43.0379 8.38894 43.0336 8.06559 43.0261C7.39575 43.0171 6.72747 42.9572 6.06624 42.8467C5.44968 42.7375 4.8524 42.5344 4.29409 42.244C3.74091 41.9561 3.23636 41.5785 2.79978 41.1258C2.35687 40.6784 1.98814 40.1595 1.70818 39.5896C1.42513 39.0161 1.22925 38.4013 1.12735 37.7667C1.01731 37.0848 0.957773 36.3953 0.949254 35.7042C0.942472 35.4722 0.933594 34.6998 0.933594 34.6998V9.28916C0.933594 9.28916 0.94305 8.52861 0.949307 8.30517C0.957464 7.61512 1.01666 6.92671 1.12637 6.24589C1.22846 5.60957 1.42449 4.99301 1.70769 4.41758C1.98662 3.84813 2.35331 3.32884 2.79354 2.87984C3.23328 2.42657 3.73944 2.04706 4.29357 1.75512C4.85059 1.46569 5.44675 1.264 6.06206 1.15679C6.72546 1.04521 7.39606 0.984886 8.06822 0.976322L9.0334 0.962891H118.961L119.938 0.976861C120.604 0.985 121.268 1.04479 121.925 1.15571C122.547 1.26426 123.149 1.46737 123.713 1.75834C124.823 2.34668 125.726 3.27747 126.296 4.42027C126.575 4.99173 126.768 5.60325 126.868 6.23408C126.98 6.92048 127.042 7.6143 127.054 8.31001C127.058 8.62153 127.058 8.95615 127.058 9.28916C127.066 9.70166 127.066 10.0943 127.066 10.4901V33.5117C127.066 33.9113 127.066 34.3013 127.058 34.6944C127.058 35.0521 127.057 35.3798 127.053 35.7171C127.041 36.4004 126.98 37.0818 126.871 37.7559C126.771 38.3951 126.576 39.0146 126.293 39.5929C126.011 40.1566 125.644 40.671 125.207 41.1172C124.77 41.5723 124.264 41.9521 123.71 42.2419C123.148 42.5345 122.546 42.7384 121.925 42.8467C121.264 42.9578 120.596 43.0177 119.926 43.0261C119.613 43.0336 119.285 43.0379 118.966 43.0379L117.807 43.0401L9.03287 43.0379Z" fill="black"/>
<path d="M26.4941 22.331C26.5056 21.4129 26.7428 20.5127 27.1835 19.7142C27.6242 18.9156 28.2542 18.2447 29.0148 17.7638C28.5316 17.0541 27.8942 16.4701 27.1531 16.0581C26.412 15.6461 25.5877 15.4174 24.7457 15.3903C22.9494 15.1964 21.2081 16.4956 20.2928 16.4956C19.3597 16.4956 17.9505 15.4096 16.4329 15.4417C15.4513 15.4743 14.4946 15.7678 13.6562 16.2937C12.8177 16.8196 12.126 17.5598 11.6484 18.4423C9.57966 22.1256 11.1227 27.5388 13.1044 30.516C14.0959 31.9739 15.2546 33.6024 16.7708 33.5447C18.2545 33.4814 18.8086 32.5717 20.5996 32.5717C22.3739 32.5717 22.8938 33.5447 24.4407 33.5079C26.0328 33.4814 27.0358 32.0436 27.9925 30.5719C28.7049 29.5331 29.2531 28.385 29.6167 27.1701C28.6918 26.7678 27.9025 26.0944 27.3472 25.2339C26.7919 24.3734 26.4952 23.3638 26.4941 22.331Z" fill="white"/>
<path d="M23.5723 13.4325C24.4404 12.3608 24.868 10.9834 24.7645 9.59277C23.4383 9.73602 22.2132 10.3878 21.3335 11.4183C20.9033 11.9218 20.5739 12.5075 20.3639 13.1419C20.154 13.7763 20.0678 14.4471 20.1101 15.1159C20.7734 15.1229 21.4297 14.975 22.0294 14.6834C22.6291 14.3918 23.1567 13.9641 23.5723 13.4325Z" fill="white"/>
<path d="M45.2488 29.8539H40.1856L38.9697 33.546H36.8252L41.6209 19.8862H43.849L48.6447 33.546H46.4636L45.2488 29.8539ZM40.71 28.1502H44.7234L42.7449 22.1582H42.6896L40.71 28.1502Z" fill="white"/>
<path d="M59.0014 28.5671C59.0014 31.6619 57.3906 33.6503 54.9598 33.6503C54.3441 33.6834 53.7317 33.5375 53.1928 33.2294C52.6539 32.9212 52.2103 32.4633 51.9128 31.9079H51.8668V36.8407H49.8789V23.587H51.8031V25.2434H51.8396C52.1509 24.6907 52.602 24.2351 53.145 23.9251C53.688 23.6151 54.3025 23.4622 54.9233 23.4828C57.3811 23.4828 59.0014 25.4808 59.0014 28.5671ZM56.9581 28.5671C56.9581 26.5508 55.9449 25.2252 54.3989 25.2252C52.88 25.2252 51.8584 26.5787 51.8584 28.5671C51.8584 30.5737 52.88 31.9176 54.3989 31.9176C55.9449 31.9176 56.9581 30.6017 56.9581 28.5671Z" fill="white"/>
<path d="M69.6605 28.5671C69.6605 31.6619 68.0498 33.6503 65.619 33.6503C65.0033 33.6834 64.3909 33.5375 63.852 33.2294C63.3131 32.9212 62.8695 32.4632 62.5719 31.9079H62.5259V36.8407H60.5381V23.587H62.4622V25.2434H62.4988C62.81 24.6907 63.2611 24.2351 63.8041 23.9251C64.3471 23.6151 64.9617 23.4622 65.5824 23.4828C68.0404 23.4828 69.6605 25.4808 69.6605 28.5671ZM67.6173 28.5671C67.6173 26.5508 66.604 25.2252 65.0581 25.2252C63.5392 25.2252 62.5176 26.5787 62.5176 28.5671C62.5176 30.5737 63.5392 31.9176 65.0581 31.9176C66.6041 31.9176 67.6173 30.6016 67.6173 28.5671H67.6173Z" fill="white"/>
<path d="M76.7058 29.7403C76.8531 31.0949 78.1327 31.9843 79.8814 31.9843C81.5569 31.9843 82.7623 31.0948 82.7623 29.8734C82.7623 28.8132 82.0353 28.1783 80.3138 27.7433L78.5923 27.3168C76.1532 26.7109 75.0209 25.5379 75.0209 23.6344C75.0209 21.2775 77.0181 19.6587 79.8542 19.6587C82.661 19.6587 84.5851 21.2775 84.6499 23.6344H82.6432C82.5231 22.2712 81.4273 21.4483 79.826 21.4483C78.2246 21.4483 77.1288 22.2809 77.1288 23.4926C77.1288 24.4583 77.8287 25.0266 79.5408 25.4616L81.0043 25.8311C83.7296 26.4939 84.8619 27.6197 84.8619 29.6177C84.8619 32.1733 82.8824 33.7739 79.734 33.7739C76.7883 33.7739 74.7994 32.2109 74.6709 29.7402L76.7058 29.7403Z" fill="white"/>
<path d="M89.1514 21.2305V23.5873H90.9931V25.2062H89.1514V30.6965C89.1514 31.5494 89.5202 31.9469 90.3297 31.9469C90.5484 31.943 90.7666 31.9272 90.9837 31.8996V33.5088C90.6197 33.5787 90.2497 33.6104 89.8795 33.6033C87.9188 33.6033 87.1542 32.846 87.1542 30.9145V25.2062H85.7461V23.5873H87.1542V21.2305H89.1514Z" fill="white"/>
<path d="M92.0596 28.5674C92.0596 25.4339 93.8542 23.4648 96.6526 23.4648C99.4605 23.4648 101.247 25.4338 101.247 28.5674C101.247 31.7095 99.4699 33.6699 96.6526 33.6699C93.8364 33.6699 92.0596 31.7095 92.0596 28.5674ZM99.2213 28.5674C99.2213 26.4179 98.2634 25.1492 96.6526 25.1492C95.0419 25.1492 94.085 26.4275 94.085 28.5674C94.085 30.7255 95.0419 31.9845 96.6526 31.9845C98.2634 31.9845 99.2212 30.7255 99.2212 28.5674H99.2213Z" fill="white"/>
<path d="M102.886 23.5869H104.782V25.282H104.828C104.956 24.7526 105.258 24.2847 105.682 23.957C106.106 23.6294 106.627 23.4619 107.157 23.4827C107.386 23.4819 107.615 23.5075 107.838 23.559V25.4711C107.549 25.3802 107.247 25.3385 106.945 25.3475C106.656 25.3355 106.368 25.3879 106.101 25.501C105.834 25.6142 105.594 25.7855 105.397 26.0032C105.2 26.2209 105.051 26.4798 104.961 26.7621C104.871 27.0444 104.841 27.3435 104.874 27.6388V33.546H102.886L102.886 23.5869Z" fill="white"/>
<path d="M117.003 30.6213C116.736 32.4292 115.024 33.6699 112.833 33.6699C110.016 33.6699 108.268 31.7288 108.268 28.6146C108.268 25.4908 110.026 23.4648 112.75 23.4648C115.429 23.4648 117.114 25.3576 117.114 28.3772V29.0776H110.274V29.2012C110.243 29.5677 110.287 29.9369 110.405 30.2843C110.523 30.6318 110.711 30.9494 110.958 31.2162C111.204 31.483 111.503 31.6929 111.834 31.8318C112.166 31.9707 112.522 32.0356 112.879 32.0221C113.349 32.0673 113.821 31.9554 114.224 31.7031C114.627 31.4507 114.939 31.0713 115.116 30.6213L117.003 30.6213ZM110.284 27.6489H115.125C115.143 27.3194 115.095 26.9896 114.983 26.6802C114.871 26.3709 114.698 26.0887 114.475 25.8514C114.252 25.614 113.983 25.4267 113.686 25.301C113.39 25.1754 113.071 25.1142 112.75 25.1213C112.426 25.1193 112.105 25.1833 111.806 25.3095C111.506 25.4357 111.234 25.6217 111.005 25.8567C110.775 26.0917 110.594 26.371 110.47 26.6786C110.346 26.9863 110.283 27.316 110.284 27.6489V27.6489Z" fill="white"/>
<path d="M40.4607 9.60413C40.8774 9.57337 41.2956 9.63812 41.6851 9.79369C42.0746 9.94927 42.4256 10.1918 42.7129 10.5038C43.0002 10.8158 43.2166 11.1894 43.3465 11.5978C43.4763 12.0062 43.5164 12.4392 43.4639 12.8655C43.4639 14.9623 42.3618 16.1677 40.4607 16.1677H38.1553V9.60413H40.4607ZM39.1466 15.2394H40.35C40.6478 15.2577 40.9458 15.2075 41.2223 15.0924C41.4989 14.9774 41.747 14.8003 41.9486 14.5742C42.1502 14.3481 42.3003 14.0786 42.3879 13.7853C42.4754 13.492 42.4983 13.1823 42.4548 12.8788C42.4951 12.5765 42.4699 12.2688 42.381 11.9776C42.2921 11.6865 42.1417 11.4192 41.9405 11.1949C41.7394 10.9706 41.4924 10.7948 41.2175 10.6801C40.9425 10.5654 40.6462 10.5148 40.35 10.5317H39.1466V15.2394Z" fill="white"/>
<path d="M44.584 13.6887C44.5537 13.3632 44.5899 13.0347 44.6903 12.7245C44.7907 12.4142 44.953 12.1289 45.1669 11.8869C45.3807 11.6449 45.6414 11.4516 45.9322 11.3193C46.223 11.187 46.5375 11.1187 46.8555 11.1187C47.1734 11.1187 47.4879 11.187 47.7787 11.3193C48.0695 11.4516 48.3302 11.6449 48.544 11.8869C48.7579 12.1289 48.9202 12.4142 49.0206 12.7245C49.121 13.0347 49.1572 13.3632 49.1269 13.6887C49.1578 14.0145 49.122 14.3434 49.0219 14.6542C48.9218 14.9649 48.7595 15.2507 48.5456 15.4932C48.3317 15.7357 48.0708 15.9294 47.7797 16.062C47.4886 16.1946 47.1738 16.2631 46.8555 16.2631C46.5371 16.2631 46.2223 16.1946 45.9312 16.062C45.6401 15.9294 45.3792 15.7357 45.1653 15.4932C44.9514 15.2507 44.7891 14.9649 44.689 14.6542C44.5889 14.3434 44.5531 14.0145 44.584 13.6887ZM48.1492 13.6887C48.1492 12.615 47.6801 11.9871 46.857 11.9871C46.0307 11.9871 45.5659 12.615 45.5659 13.6887C45.5659 14.771 46.0308 15.394 46.857 15.394C47.6802 15.394 48.1492 14.7666 48.1492 13.6887H48.1492Z" fill="white"/>
<path d="M55.166 16.1676H54.1799L53.1844 12.5195H53.1092L52.1178 16.1676H51.1412L49.8135 11.2144H50.7776L51.6405 14.994H51.7115L52.7018 11.2144H53.6137L54.604 14.994H54.6792L55.5378 11.2144H56.4884L55.166 16.1676Z" fill="white"/>
<path d="M57.6045 11.2143H58.5196V12.0011H58.5906C58.7111 11.7185 58.9143 11.4816 59.172 11.3234C59.4296 11.1652 59.7289 11.0936 60.0279 11.1186C60.2623 11.1005 60.4976 11.1369 60.7165 11.225C60.9353 11.3131 61.1321 11.4507 61.2922 11.6276C61.4523 11.8045 61.5717 12.0163 61.6414 12.2471C61.7112 12.4779 61.7295 12.7218 61.6951 12.9609V16.1674H60.7445V13.2064C60.7445 12.4104 60.4082 12.0146 59.7052 12.0146C59.546 12.0069 59.3872 12.0348 59.2395 12.0962C59.0919 12.1576 58.9588 12.2511 58.8496 12.3704C58.7404 12.4896 58.6575 12.6317 58.6066 12.7869C58.5558 12.9422 58.5382 13.1069 58.5551 13.2698V16.1675H57.6045L57.6045 11.2143Z" fill="white"/>
<path d="M63.21 9.28076H64.1605V16.1676H63.21V9.28076Z" fill="white"/>
<path d="M65.4814 13.6888C65.4512 13.3632 65.4874 13.0348 65.5878 12.7245C65.6882 12.4142 65.8506 12.1289 66.0644 11.8869C66.2783 11.645 66.539 11.4516 66.8299 11.3193C67.1207 11.187 67.4352 11.1187 67.7531 11.1187C68.0711 11.1187 68.3856 11.187 68.6764 11.3193C68.9672 11.4516 69.228 11.645 69.4418 11.8869C69.6557 12.1289 69.8181 12.4142 69.9185 12.7245C70.0189 13.0348 70.0551 13.3632 70.0249 13.6888C70.0557 14.0146 70.0199 14.3435 69.9197 14.6543C69.8196 14.9651 69.6573 15.2508 69.4434 15.4933C69.2294 15.7357 68.9685 15.9295 68.6774 16.0621C68.3864 16.1946 68.0715 16.2631 67.7531 16.2631C67.4348 16.2631 67.1199 16.1946 66.8288 16.0621C66.5378 15.9295 66.2769 15.7357 66.0629 15.4933C65.849 15.2508 65.6867 14.9651 65.5866 14.6543C65.4864 14.3435 65.4506 14.0146 65.4814 13.6888ZM69.0466 13.6888C69.0466 12.6151 68.5776 11.9872 67.7544 11.9872C66.9282 11.9872 66.4634 12.6151 66.4634 13.6888C66.4634 14.771 66.9282 15.3941 67.7544 15.3941C68.5776 15.3941 69.0466 14.7667 69.0466 13.6888H69.0466Z" fill="white"/>
<path d="M71.0264 14.7667C71.0264 13.8751 71.6719 13.3611 72.8178 13.288L74.1225 13.2107V12.7831C74.1225 12.26 73.7862 11.9646 73.1364 11.9646C72.6058 11.9646 72.2381 12.1649 72.1326 12.5151H71.2123C71.3095 11.6644 72.0877 11.1187 73.1803 11.1187C74.3879 11.1187 75.0689 11.7369 75.0689 12.7831V16.1675H74.1539V15.4714H74.0787C73.926 15.7211 73.7116 15.9246 73.4575 16.0613C73.2033 16.1979 72.9184 16.2627 72.6319 16.2491C72.4297 16.2707 72.2253 16.2485 72.032 16.184C71.8386 16.1194 71.6606 16.0139 71.5093 15.8742C71.358 15.7345 71.2369 15.5638 71.1537 15.3731C71.0706 15.1823 71.0272 14.9757 71.0264 14.7667ZM74.1225 14.3434V13.9293L72.9463 14.0067C72.283 14.0523 71.9822 14.2844 71.9822 14.721C71.9822 15.1668 72.3582 15.4262 72.8753 15.4262C73.0268 15.442 73.1799 15.4263 73.3254 15.38C73.4708 15.3337 73.6058 15.2578 73.7221 15.1567C73.8385 15.0557 73.9339 14.9317 74.0027 14.7919C74.0715 14.6522 74.1122 14.4997 74.1225 14.3434Z" fill="white"/>
<path d="M76.3184 13.6888C76.3184 12.1237 77.1008 11.1322 78.3177 11.1322C78.6187 11.1179 78.9175 11.1921 79.179 11.346C79.4406 11.4998 79.6542 11.7271 79.7948 12.0012H79.8658V9.28076H80.8164V16.1676H79.9055V15.385H79.8303C79.6788 15.6572 79.4578 15.8817 79.1912 16.034C78.9246 16.1863 78.6225 16.2608 78.3177 16.2492C77.0924 16.2493 76.3184 15.2577 76.3184 13.6888ZM77.3003 13.6888C77.3003 14.7394 77.7819 15.3716 78.5873 15.3716C79.3884 15.3716 79.8836 14.7303 79.8836 13.6931C79.8836 12.6608 79.3832 12.0104 78.5873 12.0104C77.7871 12.0104 77.3003 12.6468 77.3003 13.6888H77.3003Z" fill="white"/>
<path d="M84.749 13.6887C84.7187 13.3632 84.755 13.0347 84.8553 12.7245C84.9557 12.4142 85.118 12.1289 85.3319 11.8869C85.5458 11.6449 85.8065 11.4516 86.0972 11.3193C86.388 11.187 86.7025 11.1187 87.0205 11.1187C87.3385 11.1187 87.6529 11.187 87.9437 11.3193C88.2345 11.4516 88.4952 11.6449 88.709 11.8869C88.9229 12.1289 89.0852 12.4142 89.1856 12.7245C89.286 13.0347 89.3222 13.3632 89.2919 13.6887C89.3228 14.0145 89.287 14.3434 89.1869 14.6542C89.0868 14.9649 88.9246 15.2507 88.7106 15.4932C88.4967 15.7357 88.2358 15.9294 87.9447 16.062C87.6537 16.1946 87.3388 16.2631 87.0205 16.2631C86.7021 16.2631 86.3873 16.1946 86.0962 16.062C85.8051 15.9294 85.5442 15.7357 85.3303 15.4932C85.1164 15.2507 84.9542 14.9649 84.8541 14.6542C84.7539 14.3434 84.7182 14.0145 84.749 13.6887ZM88.3142 13.6887C88.3142 12.615 87.8452 11.9871 87.022 11.9871C86.1958 11.9871 85.731 12.615 85.731 13.6887C85.731 14.771 86.1958 15.394 87.022 15.394C87.8452 15.394 88.3142 14.7666 88.3142 13.6887Z" fill="white"/>
<path d="M90.5674 11.2143H91.4824V12.0011H91.5535C91.674 11.7185 91.8772 11.4816 92.1349 11.3234C92.3925 11.1652 92.6917 11.0936 92.9908 11.1186C93.2252 11.1005 93.4605 11.1369 93.6794 11.225C93.8982 11.3131 94.095 11.4507 94.2551 11.6276C94.4152 11.8045 94.5346 12.0163 94.6043 12.2471C94.674 12.4779 94.6924 12.7218 94.658 12.9609V16.1674H93.7074V13.2064C93.7074 12.4104 93.3711 12.0146 92.6681 12.0146C92.5089 12.0069 92.3501 12.0348 92.2024 12.0962C92.0547 12.1576 91.9217 12.2511 91.8125 12.3704C91.7033 12.4896 91.6204 12.6317 91.5695 12.7869C91.5187 12.9422 91.5011 13.1069 91.518 13.2698V16.1675H90.5674V11.2143Z" fill="white"/>
<path d="M100.029 9.98096V11.2367H101.072V12.0601H100.029V14.6071C100.029 15.1259 100.237 15.3531 100.71 15.3531C100.831 15.3527 100.952 15.3452 101.072 15.3306V16.1448C100.902 16.1762 100.729 16.1929 100.555 16.1948C99.4981 16.1948 99.0771 15.8123 99.0771 14.8574V12.0601H98.3125V11.2367H99.0771V9.98096H100.029Z" fill="white"/>
<path d="M102.371 9.28076H103.313V12.0104H103.389C103.515 11.7251 103.724 11.4869 103.987 11.3281C104.249 11.1693 104.553 11.0977 104.857 11.1231C105.09 11.11 105.323 11.15 105.54 11.2403C105.756 11.3305 105.95 11.4688 106.109 11.6451C106.267 11.8215 106.386 12.0317 106.456 12.2606C106.527 12.4896 106.547 12.7317 106.516 12.9696V16.1676H105.564V13.2108C105.564 12.4196 105.206 12.0189 104.534 12.0189C104.371 12.0052 104.207 12.0283 104.053 12.0866C103.899 12.145 103.76 12.2372 103.644 12.3568C103.529 12.4764 103.44 12.6205 103.384 12.7791C103.329 12.9376 103.307 13.1068 103.322 13.2747V16.1676H102.371L102.371 9.28076Z" fill="white"/>
<path d="M112.058 14.8302C111.929 15.2829 111.649 15.6744 111.268 15.9364C110.886 16.1984 110.427 16.314 109.971 16.2632C109.654 16.2718 109.338 16.2093 109.047 16.08C108.755 15.9507 108.495 15.7577 108.283 15.5145C108.071 15.2712 107.914 14.9835 107.821 14.6713C107.728 14.3591 107.703 14.0299 107.746 13.7065C107.704 13.3822 107.73 13.0522 107.822 12.7391C107.915 12.426 108.072 12.1369 108.282 11.8915C108.493 11.6461 108.752 11.4502 109.043 11.3168C109.334 11.1835 109.649 11.1159 109.967 11.1187C111.307 11.1187 112.116 12.0603 112.116 13.6157V13.9568H108.714V14.0116C108.7 14.1934 108.722 14.3763 108.78 14.5488C108.838 14.7212 108.93 14.8793 109.051 15.0129C109.171 15.1465 109.318 15.2527 109.481 15.3246C109.644 15.3965 109.82 15.4326 109.997 15.4306C110.225 15.4587 110.455 15.4166 110.659 15.3097C110.863 15.2027 111.032 15.0358 111.143 14.8301L112.058 14.8302ZM108.714 13.2339H111.147C111.159 13.0676 111.137 12.9007 111.083 12.7437C111.028 12.5867 110.942 12.4431 110.831 12.3223C110.719 12.2015 110.584 12.106 110.434 12.042C110.285 11.978 110.124 11.9469 109.962 11.9507C109.797 11.9486 109.634 11.9803 109.482 12.0441C109.33 12.1078 109.191 12.2023 109.075 12.3218C108.959 12.4414 108.867 12.5837 108.805 12.7404C108.743 12.897 108.712 13.0648 108.714 13.2339H108.714Z" fill="white"/>
</g>
<defs>
<clipPath id="clip0">
<rect width="128" height="44" fill="white"/>
</clipPath>
</defs>
</svg>
