<svg width="146" height="43" viewBox="0 0 146 43" fill="none" xmlns="http://www.w3.org/2000/svg">
<g clip-path="url(#clip0)">
<path fill-rule="evenodd" clip-rule="evenodd" d="M140.293 43H5.78763C2.82119 43 0.405273 40.5766 0.405273 37.625V5.375C0.405273 2.41272 2.82119 0 5.78763 0H140.293C143.257 0 145.676 2.41272 145.676 5.375V37.625C145.676 40.5766 143.257 43 140.293 43Z" fill="black"/>
<path fill-rule="evenodd" clip-rule="evenodd" d="M140.293 0.860536C142.781 0.860536 144.818 2.8899 144.818 5.375V37.625C144.818 40.1101 142.795 42.1395 140.293 42.1395H5.78763C3.29956 42.1395 1.26314 40.1101 1.26314 37.625V5.375C1.26314 2.8899 3.2862 0.860536 5.78763 0.860536C5.78763 0.860536 140.293 0.860536 140.293 0.860536ZM140.293 0H5.78763C2.82119 0 0.405273 2.42344 0.405273 5.375V37.625C0.405273 40.5873 2.82119 43 5.78763 43H140.293C143.257 43 145.676 40.5873 145.676 37.625V5.375C145.676 2.42344 143.257 0 140.293 0Z" fill="#A6A6A6"/>
<path d="M76.9344 14.2243C75.9643 14.2243 75.1465 13.8838 74.4998 13.2136C73.8584 12.5622 73.5003 11.6641 73.5163 10.7473C73.5163 9.76877 73.8477 8.94041 74.4998 8.28361C75.1439 7.61341 75.9616 7.27295 76.9317 7.27295C77.8912 7.27295 78.7089 7.61341 79.3664 8.28361C80.0184 8.96185 80.3498 9.79022 80.3498 10.7473C80.3391 11.7284 80.0078 12.5568 79.3664 13.2109C78.7223 13.8865 77.9045 14.2243 76.9344 14.2243ZM48.069 14.2243C47.1203 14.2243 46.2972 13.8892 45.6237 13.227C44.9556 12.5675 44.6162 11.7338 44.6162 10.7499C44.6162 9.76609 44.9556 8.93236 45.6237 8.27289C46.2838 7.61073 47.107 7.27563 48.069 7.27563C48.5394 7.27563 48.9964 7.36946 49.4347 7.55979C49.8649 7.74477 50.215 7.99676 50.4743 8.30506L50.5384 8.3828L49.8142 9.09589L49.7393 9.00743C49.3304 8.51952 48.7826 8.28093 48.0584 8.28093C47.4116 8.28093 46.8477 8.51148 46.3827 8.96721C45.915 9.42563 45.6772 10.0261 45.6772 10.7526C45.6772 11.4791 45.915 12.0796 46.3827 12.538C46.8477 12.9938 47.4116 13.2243 48.0584 13.2243C48.7479 13.2243 49.3278 12.9938 49.7794 12.538C50.0467 12.27 50.2124 11.8946 50.2712 11.4201H47.9488V10.4175H51.268L51.2814 10.5087C51.3054 10.6776 51.3295 10.8518 51.3295 11.0127C51.3295 11.9375 51.0515 12.6855 50.501 13.2377C49.8756 13.8918 49.0579 14.2243 48.069 14.2243ZM86.4484 14.0822H85.4249L82.29 9.05032L82.3168 9.95643V14.0795H81.2932V7.41771H82.4611L82.4932 7.46865L85.4409 12.2083L85.4142 11.3049V7.41771H86.4484V14.0822V14.0822ZM69.243 14.0822H68.2061V8.42033H66.4075V7.41771H71.0389V8.42033H69.2404V14.0822H69.243ZM65.563 14.0822H64.5288V7.41771H65.563V14.0822ZM59.7504 14.0822H58.7162V8.42033H56.9176V7.41771H61.549V8.42033H59.7504V14.0822ZM56.2628 14.0715H52.2969V7.41771H56.2628V8.42033H53.3338V10.2486H55.9769V11.2405H53.3338V13.0688H56.2628V14.0715ZM75.2588 12.5246C75.7211 12.9884 76.2823 13.2216 76.9344 13.2216C77.6052 13.2216 78.1531 12.9938 78.6101 12.5246C79.0644 12.0689 79.2942 11.4711 79.2942 10.7499C79.2942 10.0288 79.0644 9.42831 78.6127 8.97526C78.1504 8.51148 77.5865 8.27825 76.9371 8.27825C76.2663 8.27825 75.7184 8.50612 75.2641 8.97526C74.8098 9.43099 74.58 10.0288 74.58 10.7499C74.58 11.4711 74.8071 12.0716 75.2588 12.5246Z" fill="white"/>
<path fill-rule="evenodd" clip-rule="evenodd" d="M73.4201 23.387C70.8946 23.387 68.8475 25.3091 68.8475 27.9604C68.8475 30.5876 70.908 32.5339 73.4201 32.5339C75.9456 32.5339 77.9927 30.5984 77.9927 27.9604C77.9927 25.3091 75.9456 23.387 73.4201 23.387ZM73.4201 30.7217C72.0385 30.7217 70.8492 29.5743 70.8492 27.9497C70.8492 26.301 72.0411 25.1778 73.4201 25.1778C74.8018 25.1778 75.991 26.301 75.991 27.9497C75.9937 29.585 74.8018 30.7217 73.4201 30.7217ZM63.4438 23.387C60.9183 23.387 58.8712 25.3091 58.8712 27.9604C58.8712 30.5876 60.9317 32.5339 63.4438 32.5339C65.9693 32.5339 68.0164 30.5984 68.0164 27.9604C68.0164 25.3091 65.9666 23.387 63.4438 23.387ZM63.4438 30.7217C62.0621 30.7217 60.8729 29.5743 60.8729 27.9497C60.8729 26.301 62.0648 25.1778 63.4438 25.1778C64.8254 25.1778 66.0147 26.301 66.0147 27.9497C66.0147 29.585 64.8254 30.7217 63.4438 30.7217ZM51.5726 24.7837V26.7192H56.204C56.0624 27.805 55.7043 28.6065 55.1564 29.1561C54.4776 29.837 53.43 30.5769 51.5833 30.5769C48.7372 30.5769 46.511 28.2714 46.511 25.4164C46.511 22.5613 48.7372 20.2558 51.5833 20.2558C53.12 20.2558 54.2398 20.8644 55.0709 21.6418L56.4392 20.2692C55.2847 19.1594 53.748 18.3096 51.594 18.3096C47.6895 18.3096 44.4131 21.4997 44.4131 25.4056C44.4131 29.3223 47.6869 32.5017 51.594 32.5017C53.7026 32.5017 55.2847 31.8101 56.5354 30.5072C57.8102 29.2285 58.2137 27.4243 58.2137 25.9686C58.2137 25.5156 58.179 25.1081 58.1068 24.7623H51.57C51.5726 24.7596 51.5726 24.7837 51.5726 24.7837ZM100.129 26.2903C99.7467 25.2636 98.5922 23.3763 96.2244 23.3763C93.8779 23.3763 91.927 25.2287 91.927 27.9497C91.927 30.5179 93.8565 32.5232 96.4515 32.5232C98.536 32.5232 99.7493 31.2444 100.249 30.4938L98.7017 29.4536C98.1886 30.2177 97.4751 30.719 96.4622 30.719C95.4386 30.719 94.7224 30.2525 94.2467 29.333L100.343 26.7997C100.343 26.8023 100.129 26.2903 100.129 26.2903ZM93.9127 27.8184C93.8646 26.0517 95.281 25.1536 96.2938 25.1536C97.0929 25.1536 97.7584 25.5477 97.9855 26.1214L93.9127 27.8184ZM88.9606 32.2497H90.9623V18.8136H88.9606V32.2497ZM85.6734 24.403H85.6013C85.1496 23.8642 84.2918 23.3763 83.196 23.3763C80.9218 23.3763 78.8265 25.3842 78.8265 27.9631C78.8265 30.5313 80.9111 32.5151 83.196 32.5151C84.2784 32.5151 85.1496 32.0245 85.6013 31.475H85.6734V32.1318C85.6734 33.877 84.7434 34.8179 83.2441 34.8179C82.0175 34.8179 81.2558 33.9333 80.9458 33.1934L79.206 33.9225C79.7058 35.1289 81.0394 36.6221 83.2415 36.6221C85.5879 36.6221 87.5762 35.2361 87.5762 31.8556V23.6497H85.6841V24.403C85.6868 24.403 85.6734 24.403 85.6734 24.403ZM83.3751 30.7217C81.9934 30.7217 80.8389 29.5636 80.8389 27.9631C80.8389 26.3493 81.9934 25.1805 83.3751 25.1805C84.7434 25.1805 85.8044 26.3627 85.8044 27.9631C85.8177 29.5636 84.7461 30.7217 83.3751 30.7217ZM109.501 18.8136H104.715V32.2497H106.716V27.1616H109.504C111.719 27.1616 113.897 25.5504 113.897 22.9929C113.897 20.4354 111.727 18.8136 109.501 18.8136ZM109.56 25.285H106.714V20.674H109.56C111.059 20.674 111.906 21.9152 111.906 22.9795C111.906 24.0331 111.049 25.285 109.56 25.285ZM121.92 23.3629C120.466 23.3629 118.967 24.0089 118.347 25.4164L120.122 26.1563C120.504 25.4164 121.204 25.1644 121.944 25.1644C122.981 25.1644 124.029 25.7863 124.053 26.8962V27.0382C123.695 26.8345 122.909 26.5235 121.968 26.5235C120.052 26.5235 118.109 27.5744 118.109 29.5448C118.109 31.349 119.681 32.5071 121.431 32.5071C122.775 32.5071 123.516 31.8985 123.978 31.1935H124.05V32.2336H125.98V27.0865C125.98 24.6899 124.205 23.3629 121.92 23.3629ZM121.669 30.7217C121.014 30.7217 120.098 30.4 120.098 29.5743C120.098 28.5341 121.241 28.1401 122.217 28.1401C123.099 28.1401 123.516 28.3304 124.039 28.5931C123.895 29.7995 122.88 30.7109 121.669 30.7217ZM133.019 23.6497L130.721 29.4778H130.648L128.267 23.6497H126.113L129.686 31.7967L127.65 36.3245H129.735L135.232 23.6497H133.019ZM115.001 32.2497H117.003V18.8136H115.001V32.2497Z" fill="white"/>
<path fill-rule="evenodd" clip-rule="evenodd" d="M11.5867 8.09875C11.2767 8.43385 11.0977 8.94588 11.0977 9.61608V33.3867C11.0977 34.0569 11.2767 34.5689 11.5974 34.8906L11.6803 34.963L24.9571 21.6448V21.3473L11.6696 8.02637L11.5867 8.09875Z" fill="url(#paint0_linear)"/>
<path fill-rule="evenodd" clip-rule="evenodd" d="M29.3756 26.0975L24.9473 21.6554V21.3444L29.3756 16.9023L29.4718 16.9613L34.7098 19.9477C36.2091 20.7949 36.2091 22.1942 34.7098 23.0521L29.4718 26.0385L29.3756 26.0975Z" fill="url(#paint1_linear)"/>
<path fill-rule="evenodd" clip-rule="evenodd" d="M29.4711 26.0386L24.9466 21.5L11.5869 34.9013C12.076 35.4267 12.8964 35.4857 13.8131 34.9737L29.4711 26.0386Z" fill="url(#paint2_linear)"/>
<path fill-rule="evenodd" clip-rule="evenodd" d="M29.4711 16.9616L13.8131 8.03993C12.8964 7.51449 12.0733 7.58687 11.5869 8.11231L24.9466 21.5002L29.4711 16.9616Z" fill="url(#paint3_linear)"/>
<path opacity="0.2" fill-rule="evenodd" clip-rule="evenodd" d="M29.375 25.9419L13.8238 34.8046C12.9553 35.3059 12.1803 35.2711 11.6805 34.8153L11.5977 34.8984L11.6805 34.9708C12.1803 35.4239 12.9553 35.4614 13.8238 34.9601L29.4819 26.0384L29.375 25.9419Z" fill="black"/>
<path opacity="0.12" fill-rule="evenodd" clip-rule="evenodd" d="M34.7089 22.8967L29.3613 25.9421L29.4575 26.0386L34.6956 23.0522C35.4465 22.6233 35.8153 22.0603 35.8153 21.5C35.7699 22.0147 35.3878 22.5026 34.7089 22.8967Z" fill="black"/>
<path opacity="0.25" fill-rule="evenodd" clip-rule="evenodd" d="M13.8129 8.19521L34.709 20.1033C35.3878 20.4867 35.7699 20.988 35.8287 21.5C35.8287 20.9397 35.4599 20.3767 34.709 19.9478L13.8129 8.03973C12.3136 7.17919 11.0977 7.89764 11.0977 9.61603V9.77152C11.0977 8.05045 12.3136 7.3454 13.8129 8.19521Z" fill="white"/>
</g>
<defs>
<linearGradient id="paint0_linear" x1="23.7662" y1="9.35962" x2="2.49023" y2="15.011" gradientUnits="userSpaceOnUse">
<stop stop-color="#00A0FF"/>
<stop offset="0.00657" stop-color="#00A1FF"/>
<stop offset="0.2601" stop-color="#00BEFF"/>
<stop offset="0.5122" stop-color="#00D2FF"/>
<stop offset="0.7604" stop-color="#00DFFF"/>
<stop offset="1" stop-color="#00E3FF"/>
</linearGradient>
<linearGradient id="paint1_linear" x1="36.665" y1="21.5" x2="10.7341" y2="21.5" gradientUnits="userSpaceOnUse">
<stop stop-color="#FFE000"/>
<stop offset="0.4087" stop-color="#FFBD00"/>
<stop offset="0.7754" stop-color="#FFA500"/>
<stop offset="1" stop-color="#FF9C00"/>
</linearGradient>
<linearGradient id="paint2_linear" x1="27.0109" y1="23.9696" x2="9.85903" y2="52.7479" gradientUnits="userSpaceOnUse">
<stop stop-color="#FF3A44"/>
<stop offset="1" stop-color="#C31162"/>
</linearGradient>
<linearGradient id="paint3_linear" x1="8.2228" y1="0.192412" x2="15.8749" y2="13.0453" gradientUnits="userSpaceOnUse">
<stop stop-color="#32A071"/>
<stop offset="0.0685" stop-color="#2DA771"/>
<stop offset="0.4762" stop-color="#15CF74"/>
<stop offset="0.8009" stop-color="#06E775"/>
<stop offset="1" stop-color="#00F076"/>
</linearGradient>
<clipPath id="clip0">
<rect x="0.405273" width="145.27" height="43" fill="white"/>
</clipPath>
</defs>
</svg>
