<svg width="20" height="12" viewBox="0 0 20 12" fill="none" xmlns="http://www.w3.org/2000/svg">
<path d="M10 0.399963C3.439 0.399963 0 5.23196 0 5.99996C0 6.76596 3.439 11.6 10 11.6C16.56 11.6 20 6.76596 20 5.99996C20 5.23196 16.56 0.399963 10 0.399963ZM10 10.307C7.545 10.307 5.555 8.37896 5.555 5.99996C5.555 3.62096 7.545 1.69096 10 1.69096C12.455 1.69096 14.444 3.62096 14.444 5.99996C14.444 8.37896 12.455 10.307 10 10.307ZM10 5.99996C9.593 5.55296 10.663 3.84596 10 3.84596C8.772 3.84596 7.777 4.81096 7.777 5.99996C7.777 7.18896 8.772 8.15396 10 8.15396C11.227 8.15396 12.223 7.18896 12.223 5.99996C12.223 5.45296 10.346 6.37896 10 5.99996Z" fill="#999999"/>
</svg>
