<svg width="151" height="118" viewBox="0 0 151 118" fill="none" xmlns="http://www.w3.org/2000/svg">
<path d="M33.3906 59.1875H36.125C43.5469 59.1875 50.1875 62.0521 56.0469 67.7812C62.0365 73.3802 65.0312 80.4115 65.0312 88.875C65.0312 97.2083 62.0365 104.109 56.0469 109.578C50.1875 114.917 42.8958 117.586 34.1719 117.586C24.6667 117.586 16.724 113.81 10.3438 106.258C4.09375 98.5755 0.96875 87.7031 0.96875 73.6406C0.96875 60.75 3.70312 48.7057 9.17188 37.5078C14.7708 26.1797 21.5417 17.2604 29.4844 10.75C37.5573 4.10938 44.7188 0.789062 50.9688 0.789062C55.1354 0.789062 58.3906 2.02604 60.7344 4.5C63.0781 6.97396 64.25 10.1641 64.25 14.0703C64.25 19.7995 61.7109 24.0312 56.6328 26.7656C49.7318 30.5417 44.263 34.9688 40.2266 40.0469C36.1901 45.125 33.9115 51.5052 33.3906 59.1875ZM119.719 59.1875H122.258C129.549 59.1875 136.125 62.0521 141.984 67.7812C147.974 73.3802 150.969 80.4115 150.969 88.875C150.969 97.0781 147.974 103.979 141.984 109.578C136.125 115.177 128.833 117.977 120.109 117.977C110.474 117.977 102.531 114.07 96.2812 106.258C90.0312 98.4453 86.9062 87.5729 86.9062 73.6406C86.9062 63.6146 88.5339 54.1745 91.7891 45.3203C95.0443 36.4661 99.2109 28.7839 104.289 22.2734C109.497 15.6328 115.031 10.4245 120.891 6.64844C126.88 2.74219 132.219 0.789062 136.906 0.789062C141.203 0.789062 144.458 2.02604 146.672 4.5C149.016 6.84375 150.188 10.0339 150.188 14.0703C150.188 19.9297 147.648 24.1615 142.57 26.7656C135.409 30.8021 130.005 35.2943 126.359 40.2422C122.714 45.0599 120.5 51.375 119.719 59.1875Z" fill="#1ABC9C"/>
</svg>
